<?xml version="1.0" encoding="UTF-8" standalone="no"?>
<!-- Created with Inkscape (http://www.inkscape.org/) -->

<svg
   xmlns:dc="http://purl.org/dc/elements/1.1/"
   xmlns:cc="http://creativecommons.org/ns#"
   xmlns:rdf="http://www.w3.org/1999/02/22-rdf-syntax-ns#"
   xmlns:svg="http://www.w3.org/2000/svg"
   xmlns="http://www.w3.org/2000/svg"
   xmlns:sodipodi="http://sodipodi.sourceforge.net/DTD/sodipodi-0.dtd"
   xmlns:inkscape="http://www.inkscape.org/namespaces/inkscape"
   width="512"
   height="512"
   id="svg2"
   version="1.1"
   inkscape:version="0.48.4 r9939"
   sodipodi:docname="penguin.svg"
   inkscape:export-filename="/home/travis/DATA/Pictures/Penguin/penguin.png"
   inkscape:export-xdpi="90"
   inkscape:export-ydpi="90">
  <defs
     id="defs4" />
  <sodipodi:namedview
     id="base"
     pagecolor="#ffffff"
     bordercolor="#666666"
     borderopacity="1.0"
     inkscape:pageopacity="0.0"
     inkscape:pageshadow="2"
     inkscape:zoom="0.7"
     inkscape:cx="344.77593"
     inkscape:cy="145.59043"
     inkscape:document-units="px"
     inkscape:current-layer="layer12"
     showgrid="false"
     width="512px"
     inkscape:window-width="1920"
     inkscape:window-height="1031"
     inkscape:window-x="1920"
     inkscape:window-y="25"
     inkscape:window-maximized="1" />
  <metadata
     id="metadata7">
    <rdf:RDF>
      <cc:Work
         rdf:about="">
        <dc:format>image/svg+xml</dc:format>
        <dc:type
           rdf:resource="http://purl.org/dc/dcmitype/StillImage" />
        <dc:title />
      </cc:Work>
    </rdf:RDF>
  </metadata>
  <g
     inkscape:groupmode="layer"
     id="layer6"
     inkscape:label="Background"
     sodipodi:insensitive="true">
    <rect
       style="fill:#ffffff;fill-opacity:1"
       id="rect3249"
       width="541.42859"
       height="545"
       x="-5.7142859"
       y="-5.8571434" />
  </g>
  <g
     inkscape:groupmode="layer"
     id="layer3"
     inkscape:label="Body"
     transform="translate(0,-540.36202)"
     style="display:inline"
     sodipodi:insensitive="true">
    <g
       inkscape:groupmode="layer"
       id="layer7"
       inkscape:label="Back"
       style="display:inline"
       sodipodi:insensitive="true">
      <path
         transform="matrix(0.64627272,0,0,0.59189679,20.029731,395.29197)"
         sodipodi:type="arc"
         style="fill:#333333;display:inline"
         id="path2985-0"
         sodipodi:cx="375.71429"
         sodipodi:cy="645.2193"
         sodipodi:rx="261.42856"
         sodipodi:ry="372.85715"
         d="m 637.14285,645.2193 a 261.42856,372.85715 0 1 1 -522.85711,0 261.42856,372.85715 0 1 1 522.85711,0 z" />
    </g>
    <g
       inkscape:groupmode="layer"
       id="layer9"
       inkscape:label="Main"
       style="display:inline"
       sodipodi:insensitive="true">
      <path
         transform="matrix(0.63397764,0,0,0.59189679,24.916653,398.37587)"
         sodipodi:type="arc"
         style="fill:#000000;display:inline"
         id="path2985"
         sodipodi:cx="375.71429"
         sodipodi:cy="645.2193"
         sodipodi:rx="261.42856"
         sodipodi:ry="372.85715"
         d="m 637.14285,645.2193 a 261.42856,372.85715 0 1 1 -522.85711,0 261.42856,372.85715 0 1 1 522.85711,0 z" />
    </g>
  </g>
  <g
     inkscape:groupmode="layer"
     id="layer20"
     inkscape:label="Wings"
     style="display:inline"
     sodipodi:insensitive="true">
    <g
       inkscape:groupmode="layer"
       id="layer21"
       inkscape:label="Wings-Shadow"
       sodipodi:insensitive="true">
      <path
         sodipodi:type="arc"
         style="fill:#333333;fill-opacity:1;display:inline"
         id="path3165-4"
         sodipodi:cx="86.368042"
         sodipodi:cy="753.35706"
         sodipodi:rx="27.779196"
         sodipodi:ry="175.76654"
         d="m 114.14724,753.35706 a 27.779196,175.76654 0 1 1 -55.558394,0 27.779196,175.76654 0 1 1 55.558394,0 z"
         transform="matrix(0.62168211,0.12425382,-0.12425382,0.62168211,123.17573,-159.29688)" />
      <path
         sodipodi:type="arc"
         style="fill:#333333;fill-opacity:1;display:inline"
         id="path3165-6-0"
         sodipodi:cx="86.368042"
         sodipodi:cy="753.35706"
         sodipodi:rx="27.779196"
         sodipodi:ry="175.76654"
         d="m 114.14724,753.35706 a 27.779196,175.76654 0 1 1 -55.558394,0 27.779196,175.76654 0 1 1 55.558394,0 z"
         transform="matrix(0.63241335,-0.0445085,0.0445085,0.63241335,344.05238,-155.4461)" />
    </g>
    <g
       inkscape:groupmode="layer"
       id="layer23"
       inkscape:label="Wings-Main"
       sodipodi:insensitive="true">
      <path
         sodipodi:type="arc"
         style="fill:#000000;fill-opacity:1;display:inline"
         id="path3165"
         sodipodi:cx="86.368042"
         sodipodi:cy="753.35706"
         sodipodi:rx="27.779196"
         sodipodi:ry="175.76654"
         d="m 114.14724,753.35706 a 27.779196,175.76654 0 1 1 -55.558394,0 27.779196,175.76654 0 1 1 55.558394,0 z"
         transform="matrix(0.62168211,0.12425382,-0.12425382,0.62168211,125.95063,-162.63357)" />
      <path
         sodipodi:type="arc"
         style="fill:#000000;fill-opacity:1;display:inline"
         id="path3165-6"
         sodipodi:cx="86.368042"
         sodipodi:cy="753.35706"
         sodipodi:rx="27.779196"
         sodipodi:ry="175.76654"
         d="m 114.14724,753.35706 a 27.779196,175.76654 0 1 1 -55.558394,0 27.779196,175.76654 0 1 1 55.558394,0 z"
         transform="matrix(0.63241335,-0.0445085,0.0445085,0.63241335,340.82728,-156.78279)" />
    </g>
  </g>
  <g
     inkscape:groupmode="layer"
     id="layer16"
     inkscape:label="Feet"
     sodipodi:insensitive="true">
    <g
       inkscape:groupmode="layer"
       id="layer19"
       inkscape:label="Feet-Shadow"
       style="display:inline">
      <path
         sodipodi:type="arc"
         style="fill:#ff7f2a;fill-opacity:1"
         id="path3145-8-2"
         sodipodi:cx="568.21082"
         sodipodi:cy="978.11597"
         sodipodi:rx="72.225906"
         sodipodi:ry="38.890873"
         d="m 640.43672,978.11597 a 72.225906,38.890873 0 1 1 -144.45181,0 72.225906,38.890873 0 1 1 144.45181,0 z"
         transform="matrix(0.7359461,0,0,0.63397764,-233.86415,-153.26375)" />
      <path
         sodipodi:type="arc"
         style="fill:#ff7f2a;fill-opacity:1;display:inline"
         id="path3145-3"
         sodipodi:cx="568.21082"
         sodipodi:cy="978.11597"
         sodipodi:rx="72.225906"
         sodipodi:ry="38.890873"
         d="m 640.43672,978.11597 a 72.225906,38.890873 0 1 1 -144.45181,0 72.225906,38.890873 0 1 1 144.45181,0 z"
         transform="matrix(0.7359461,0,0,0.63397764,-80.338059,-152.22926)" />
    </g>
    <g
       inkscape:groupmode="layer"
       id="layer18"
       inkscape:label="Feet-Main"
       style="display:inline">
      <path
         sodipodi:type="arc"
         style="fill:#ff9955;fill-opacity:1"
         id="path3145-8"
         sodipodi:cx="568.21082"
         sodipodi:cy="978.11597"
         sodipodi:rx="72.225906"
         sodipodi:ry="38.890873"
         d="m 640.43672,978.11597 a 72.225906,38.890873 0 1 1 -144.45181,0 72.225906,38.890873 0 1 1 144.45181,0 z"
         transform="matrix(0.7359461,0,0,0.63397764,-233.19137,-157.14998)" />
      <path
         sodipodi:type="arc"
         style="fill:#ff9955;fill-opacity:1"
         id="path3145"
         sodipodi:cx="568.21082"
         sodipodi:cy="978.11597"
         sodipodi:rx="72.225906"
         sodipodi:ry="38.890873"
         d="m 640.43672,978.11597 a 72.225906,38.890873 0 1 1 -144.45181,0 72.225906,38.890873 0 1 1 144.45181,0 z"
         transform="matrix(0.7359461,0,0,0.63397764,-81.808136,-156.82978)" />
    </g>
  </g>
  <g
     inkscape:groupmode="layer"
     id="layer4"
     inkscape:label="Breast"
     transform="translate(0,-540.36202)"
     sodipodi:insensitive="true">
    <path
       sodipodi:type="arc"
       style="fill:#ffffff"
       id="path3116"
       sodipodi:cx="383.35291"
       sodipodi:cy="831.13879"
       sodipodi:rx="64.144684"
       sodipodi:ry="86.873116"
       d="m 447.49759,831.13879 a 64.144684,86.873116 0 1 1 -128.28937,0 64.144684,86.873116 0 1 1 128.28937,0 z"
       transform="matrix(1.40773,0,0,1.1721214,-274.94522,-91.770453)" />
  </g>
  <g
     inkscape:label="Beak"
     inkscape:groupmode="layer"
     id="layer1"
     style="display:inline"
     transform="translate(0,-540.36202)">
    <g
       inkscape:groupmode="layer"
       id="layer12"
       inkscape:label="Beak-Lower"
       style="display:inline">
      <path
         sodipodi:type="star"
         style="fill:#d45500;display:inline"
         id="path3009-8"
         sodipodi:sides="3"
         sodipodi:cx="-101.42857"
         sodipodi:cy="615.21936"
         sodipodi:r1="97.867569"
         sodipodi:r2="48.933784"
         sodipodi:arg1="1.5853938"
         sodipodi:arg2="2.6325914"
         inkscape:flatsided="false"
         inkscape:rounded="0"
         inkscape:randomized="0"
         d="m -102.85714,713.0765 -41.30196,-74.01144 -41.30196,-74.01145 84.74677,1.23718 84.746772,1.23718 -43.444813,72.77427 z"
         inkscape:transform-center-x="-0.40211837"
         inkscape:transform-center-y="16.837582"
         transform="matrix(0.5629693,0,0,0.70610518,316.6387,350.18562)" />
    </g>
    <g
       inkscape:groupmode="layer"
       id="layer10"
       inkscape:label="Beak-Main"
       style="display:inline">
      <path
         sodipodi:type="star"
         style="fill:#ff9955;display:inline"
         id="path3009"
         sodipodi:sides="3"
         sodipodi:cx="-101.42857"
         sodipodi:cy="615.21936"
         sodipodi:r1="97.867569"
         sodipodi:r2="48.933784"
         sodipodi:arg1="1.5853938"
         sodipodi:arg2="2.6325914"
         inkscape:flatsided="false"
         inkscape:rounded="0"
         inkscape:randomized="0"
         d="m -102.85714,713.0765 -41.30196,-74.01144 -41.30196,-74.01145 84.74677,1.23718 84.746772,1.23718 -43.444813,72.77427 z"
         inkscape:transform-center-x="-0.45283673"
         inkscape:transform-center-y="15.117635"
         transform="matrix(0.63397764,0,0,0.63397764,324.25059,381.70804)" />
    </g>
    <g
       inkscape:groupmode="layer"
       id="layer15"
       inkscape:label="Nose"
       style="display:inline">
      <path
         sodipodi:type="star"
         style="fill:#000000;fill-opacity:1;display:inline"
         id="path3132"
         sodipodi:sides="3"
         sodipodi:cx="480.71429"
         sodipodi:cy="138.42857"
         sodipodi:r1="5.0507627"
         sodipodi:r2="2.5253813"
         sodipodi:arg1="1.7126934"
         sodipodi:arg2="2.7598909"
         inkscape:flatsided="false"
         inkscape:rounded="0"
         inkscape:randomized="0"
         d="m 480.00001,143.42857 -1.62935,-4.05929 -1.62935,-4.0593 4.33013,0.61859 4.33012,0.61859 -2.70077,3.44071 z"
         transform="translate(-238.57143,620.71916)"
         inkscape:transform-center-x="-0.35714286"
         inkscape:transform-center-y="0.94070521" />
      <path
         sodipodi:type="star"
         style="fill:#000000;fill-opacity:1;display:inline"
         id="path3132-5"
         sodipodi:sides="3"
         sodipodi:cx="480.71429"
         sodipodi:cy="138.42857"
         sodipodi:r1="5.0507627"
         sodipodi:r2="2.5253813"
         sodipodi:arg1="1.7126934"
         sodipodi:arg2="2.7598909"
         inkscape:flatsided="false"
         inkscape:rounded="0"
         inkscape:randomized="0"
         d="m 480.00001,143.42857 -1.62935,-4.05929 -1.62935,-4.0593 4.33013,0.61859 4.33012,0.61859 -2.70077,3.44071 z"
         transform="matrix(0.92496172,-0.38006028,0.38006028,0.92496172,-217.96781,813.22345)"
         inkscape:transform-center-x="0.61980859"
         inkscape:transform-center-y="0.68729993" />
    </g>
  </g>
  <g
     inkscape:groupmode="layer"
     id="layer2"
     inkscape:label="Eyes"
     transform="translate(0,-540.36202)"
     sodipodi:insensitive="true">
    <path
       sodipodi:type="arc"
       style="fill:#ffffff;display:inline"
       id="path2987"
       sodipodi:cx="124.28571"
       sodipodi:cy="466.64789"
       sodipodi:rx="104.28571"
       sodipodi:ry="108.57143"
       d="m 228.57143,466.64789 a 104.28571,108.57143 0 1 1 -208.57143,0 104.28571,108.57143 0 1 1 208.57143,0 z"
       transform="matrix(0.63397764,0,0,0.63397764,254.94536,393.15403)" />
    <path
       sodipodi:type="arc"
       style="fill:#ffffff;display:inline"
       id="path2987-3"
       sodipodi:cx="124.28571"
       sodipodi:cy="466.64789"
       sodipodi:rx="104.28571"
       sodipodi:ry="108.57143"
       d="m 228.57143,466.64789 a 104.28571,108.57143 0 1 1 -208.57143,0 104.28571,108.57143 0 1 1 208.57143,0 z"
       transform="matrix(0.63397764,0,0,0.63397764,118.64016,393.79445)" />
    <path
       transform="matrix(0.63397764,0,0,0.63397764,49.878191,363.71935)"
       sodipodi:type="arc"
       style="fill:#000000;display:inline"
       id="path3011"
       sodipodi:cx="267.5"
       sodipodi:cy="523.79077"
       sodipodi:rx="17.5"
       sodipodi:ry="17.857143"
       d="m 285,523.79077 a 17.5,17.857143 0 1 1 -35,0 17.5,17.857143 0 1 1 35,0 z" />
    <path
       transform="matrix(0.63397764,0,0,0.63397764,140.76615,361.59719)"
       sodipodi:type="arc"
       style="fill:#000000;display:inline"
       id="path3011-2"
       sodipodi:cx="267.5"
       sodipodi:cy="523.79077"
       sodipodi:rx="17.5"
       sodipodi:ry="17.857143"
       d="m 285,523.79077 a 17.5,17.857143 0 1 1 -35,0 17.5,17.857143 0 1 1 35,0 z" />
  </g>
</svg>
